<svg width="60" height="60" viewBox="0 0 60 60" fill="none" xmlns="http://www.w3.org/2000/svg">
<path fill-rule="evenodd" clip-rule="evenodd" d="M60 31.25C60 44.8029 60 51.5794 55.7897 55.7895C51.5791 60 44.8028 60 31.2499 60H28.7498C15.1972 60 8.42063 60 4.21032 55.7895C0 51.5794 0 44.8029 0 31.25V28.75C0 15.1971 0 8.4206 4.21032 4.21055C8.42063 0 15.1972 0 28.7498 0H31.2499C44.8028 0 51.5791 0 55.7897 4.21055C60 8.4206 60 15.1971 60 28.75V31.25Z" fill="#0077FF"/>
<path d="M24.8223 0C35.8055 0.0388854 41.6611 0.422461 45.4449 4.20616C49.6552 8.41621 49.6552 15.1928 49.6552 28.7456V31.2456C49.6552 44.7985 49.6552 51.575 45.4449 55.7851C41.6623 59.5676 35.8091 59.9521 24.8325 59.9912C13.8496 59.9523 7.99379 59.5687 4.21032 55.785C0 51.575 0 44.7984 0 31.2456V28.7456C0 15.1927 0 8.41618 4.21032 4.20613C7.99263 0.423607 13.846 0.0390889 24.8223 0Z" fill="#FF2B42"/>
<path fill-rule="evenodd" clip-rule="evenodd" d="M20.0938 20.7929C19.3274 20.5152 18.5306 20.96 18.3713 21.774C17.8563 24.4064 17.5858 27.1304 17.5858 29.9214C17.5858 32.7694 17.8675 35.5475 18.4031 38.2299C18.5653 39.042 19.3621 39.4843 20.1272 39.2063C25.1812 37.3698 29.7821 34.5587 33.7067 30.9926C34.3017 30.452 34.3017 29.5594 33.7067 29.0187C29.7734 25.4448 25.161 22.6292 20.0938 20.7929ZM12.2799 20.5823C13.1676 16.0445 17.8479 13.3772 22.2085 14.9574C28.053 17.0753 33.3616 20.3187 37.8808 24.4249C41.1862 27.4284 41.1862 32.583 37.8807 35.5864C33.3715 39.6836 28.0763 42.9218 22.247 45.04C17.8961 46.621 13.2202 43.9711 12.3164 39.4454C11.7012 36.3648 11.3789 33.1796 11.3789 29.9214C11.3789 26.7284 11.6885 23.6054 12.2799 20.5823Z" fill="white"/>
</svg>
