<svg width="62" height="62" viewBox="0 0 62 62" fill="none" xmlns="http://www.w3.org/2000/svg">
<path d="M61.8588 31C61.8588 13.958 48.0436 0.142822 31.0017 0.142822C14.8254 0.142822 1.55639 12.5901 0.250086 28.4293C0.133357 29.8447 1.2958 31 2.71596 31C4.13612 31 5.27388 29.8454 5.414 28.4321C6.70248 15.4362 17.6667 5.28568 31.0017 5.28568C45.2033 5.28568 56.716 16.7984 56.716 31C56.716 44.3349 46.5655 55.2992 33.5695 56.5876C32.1563 56.7278 31.0017 57.8655 31.0017 59.2857C31.0017 60.7058 32.157 61.8683 33.5723 61.7516C49.4115 60.4452 61.8588 47.1762 61.8588 31Z" fill="#E1E3E6"/>
</svg>
